<svg width="1939" height="1688" viewBox="0 0 1939 1688" fill="none" xmlns="http://www.w3.org/2000/svg">
<path d="M1569.5 1430.52C1693.02 1430.52 1942.11 1546.67 1937.5 1687.34" stroke="black" stroke-width="1.5"/>
<path d="M375.5 1066.08H500.683" stroke="black" stroke-width="1.5"/>
<path d="M553.5 1065.84H758.843" stroke="black" stroke-width="1.5"/>
<path d="M628.5 251.063L712.5 250.345" stroke="black" stroke-width="1.5"/>
<path d="M372.5 251.075H632.446" stroke="black" stroke-width="1.5"/>
<path d="M1345 654.345H1580.95" stroke="black" stroke-width="1.5"/>
<path d="M710.5 250.5C850.333 257 1134.4 314.6 1152 493C1169.6 671.4 1257 653.87 1321 654.37" stroke="black" stroke-width="1.5"/>
<path d="M1580.5 655C1612.5 684.833 1673 775.1 1659 897.5C1641.5 1050.5 1470.5 1133.5 1313.5 1138C1187.9 1141.6 891.167 1091.5 758.5 1066" stroke="black" stroke-width="1.5"/>
<path d="M376 1066C326.5 1073.83 145 1066 145 1283.5C145 1402 831.437 1745.55 1042.5 1604.34C1254 1462.84 1243.5 1430.84 1345.5 1430.84" stroke="black" stroke-width="1.5"/>
<path d="M372.5 251.08C279.5 251.08 83.4 223.4 1 1" stroke="black" stroke-width="1.5"/>
</svg>
